<?xml version="1.0" encoding="utf-8"?>
<!-- Generator: Adobe Illustrator 21.1.0, SVG Export Plug-In . SVG Version: 6.00 Build 0)  -->
<svg version="1.1" id="Ebene_1" xmlns="http://www.w3.org/2000/svg" xmlns:xlink="http://www.w3.org/1999/xlink" x="0px" y="0px"
	 viewBox="0 0 537.9 106.4" style="enable-background:new 0 0 537.9 106.4;" xml:space="preserve">
<style type="text/css">
	.st0{fill:#004DA1;}
</style>
<polygon class="st0" points="4.7,4 25.7,4 25.7,65.1 4.7,65.1 4.7,4 "/>
<path class="st0" d="M45.7,3.7c7.7,0,14.1,8.8,14.1,15.6c0,5.5-3.8,12.4-10.6,14.6c8.2,0.2,13,9.5,13,15.7c0,6.3-6.3,15.5-13.7,15.4
	H30.4V3.7H45.7L45.7,3.7z"/>
<polygon class="st0" points="164.7,3.8 185.6,3.8 185.6,30.9 192.2,18.8 217.7,18.8 203,42 219.3,65.1 193.4,65.1 185.6,52.4 
	185.6,65.1 164.7,65.1 164.7,3.8 "/>
<path class="st0" d="M64.3,18.8h21V45c0.1,1,1.1,1.9,2.1,1.9c1,0,1.3-0.8,2.3-1.5V18.8h20.9v27.8c0.1,13.6-15,18.6-23.1,18.6
	c-10,0-23.2-6.3-23.1-18.9V18.8L64.3,18.8z"/>
<path class="st0" d="M151.1,18.8c5.6,0,9.6,6.4,9.6,10.8v12.5h-21.1V34c0-1-1.3-1.8-2.3-1.8c-2.4,0-1.8,2-1.9,3.1v29.8h-20.8V18.8
	H151.1L151.1,18.8z"/>
<g>
	<path class="st0" d="M236.4,18.8V65c0,0-2,0-3,0c-12.1,0-20.6-13-20.6-23.1c0-9.8,8-23.1,20.6-23.1H236.4z"/>
</g>
<polygon class="st0" points="241.2,18.8 262,18.8 262,65 241.2,65 241.2,18.8 "/>
<g>
	<path d="M4.7,102.3V81.9h4.1l4.8,14.4c0.4,1.3,0.8,2.4,1,3c0.2-0.7,0.6-1.8,1.1-3.3l4.9-14.2h3.6v20.4h-2.6V85.2l-5.9,17.1h-2.4
		L7.3,84.9v17.4H4.7z"/>
	<path d="M28.3,102.3V81.9H43v2.4H31v6.2h11.3v2.4H31v6.9h12.5v2.4H28.3z"/>
	<path d="M52.1,102.3v-18h-6.7v-2.4h16.2v2.4h-6.7v18H52.1z"/>
	<path d="M59.7,102.3l7.8-20.4h2.9l8.4,20.4h-3.1l-2.4-6.2h-8.5l-2.2,6.2H59.7z M65.6,93.9h6.9l-2.1-5.7c-0.6-1.7-1.1-3.1-1.4-4.2
		c-0.3,1.3-0.6,2.6-1.1,3.9L65.6,93.9z"/>
	<path d="M80.6,102.3V81.9h2.7v18h10v2.4H80.6z"/>
	<path d="M96.1,102.3V81.9h2.7v18h10v2.4H96.1z"/>
	<path d="M111.7,102.3V81.9h7.7c1.6,0,2.8,0.2,3.8,0.6c0.9,0.4,1.7,1,2.2,1.9c0.5,0.9,0.8,1.8,0.8,2.7c0,0.9-0.2,1.7-0.7,2.5
		c-0.5,0.8-1.2,1.4-2.1,1.9c1.2,0.4,2.2,1,2.8,1.9c0.7,0.9,1,1.9,1,3.1c0,1-0.2,1.8-0.6,2.7c-0.4,0.8-0.9,1.5-1.5,1.9
		c-0.6,0.4-1.3,0.8-2.2,1c-0.9,0.2-2,0.3-3.3,0.3H111.7z M114.4,90.4h4.4c1.2,0,2.1-0.1,2.6-0.2c0.7-0.2,1.2-0.5,1.6-1
		c0.3-0.5,0.5-1.1,0.5-1.8c0-0.7-0.2-1.3-0.5-1.8c-0.3-0.5-0.8-0.9-1.4-1.1c-0.6-0.2-1.6-0.3-3.1-0.3h-4.1V90.4z M114.4,99.9h5.1
		c0.9,0,1.5,0,1.8-0.1c0.6-0.1,1.1-0.3,1.6-0.6c0.4-0.3,0.8-0.6,1-1.1c0.3-0.5,0.4-1.1,0.4-1.7c0-0.8-0.2-1.4-0.6-2
		c-0.4-0.6-0.9-1-1.6-1.2c-0.7-0.2-1.7-0.3-3-0.3h-4.7V99.9z"/>
	<path d="M128.3,102.3l7.8-20.4h2.9l8.4,20.4h-3.1l-2.4-6.2h-8.5l-2.2,6.2H128.3z M134.2,93.9h6.9l-2.1-5.7
		c-0.6-1.7-1.1-3.1-1.4-4.2c-0.3,1.3-0.6,2.6-1.1,3.9L134.2,93.9z"/>
	<path d="M162.7,81.9h2.7v11.8c0,2.1-0.2,3.7-0.7,4.9c-0.5,1.2-1.3,2.2-2.5,2.9c-1.2,0.8-2.8,1.1-4.8,1.1c-1.9,0-3.5-0.3-4.7-1
		c-1.2-0.7-2.1-1.6-2.6-2.9c-0.5-1.2-0.8-3-0.8-5.1V81.9h2.7v11.8c0,1.8,0.2,3.1,0.5,3.9c0.3,0.8,0.9,1.5,1.7,1.9s1.8,0.7,2.9,0.7
		c2,0,3.4-0.4,4.2-1.3c0.8-0.9,1.3-2.6,1.3-5.2V81.9z"/>
</g>
<g>
	<path d="M191.4,94.3v-2.4l8.6,0v7.6c-1.3,1.1-2.7,1.9-4.1,2.4c-1.4,0.5-2.9,0.8-4.3,0.8c-2,0-3.8-0.4-5.5-1.3
		c-1.6-0.9-2.9-2.1-3.7-3.7c-0.8-1.6-1.3-3.4-1.3-5.4c0-2,0.4-3.8,1.2-5.6c0.8-1.7,2-3,3.6-3.8s3.4-1.3,5.4-1.3c1.5,0,2.8,0.2,4,0.7
		c1.2,0.5,2.1,1.1,2.8,2c0.7,0.9,1.2,2,1.5,3.3l-2.4,0.7c-0.3-1-0.7-1.9-1.1-2.4c-0.5-0.6-1.1-1.1-1.9-1.4c-0.8-0.4-1.8-0.5-2.8-0.5
		c-1.2,0-2.3,0.2-3.2,0.6c-0.9,0.4-1.6,0.9-2.2,1.5c-0.6,0.6-1,1.3-1.3,2c-0.5,1.3-0.8,2.6-0.8,4.1c0,1.8,0.3,3.3,0.9,4.6
		c0.6,1.2,1.5,2.1,2.7,2.7c1.2,0.6,2.5,0.9,3.8,0.9c1.2,0,2.3-0.2,3.4-0.7c1.1-0.5,2-0.9,2.5-1.4v-3.8H191.4z"/>
	<path d="M203.7,102.3V81.9h4.1l4.8,14.4c0.4,1.3,0.8,2.4,1,3c0.2-0.7,0.6-1.8,1.1-3.3l4.9-14.2h3.6v20.4h-2.6V85.2l-5.9,17.1h-2.4
		l-5.9-17.4v17.4H203.7z"/>
	<path d="M227.1,102.3V81.9h7.7c1.6,0,2.8,0.2,3.8,0.6c0.9,0.4,1.7,1,2.2,1.9c0.5,0.9,0.8,1.8,0.8,2.7c0,0.9-0.2,1.7-0.7,2.5
		s-1.2,1.4-2.1,1.9c1.2,0.4,2.2,1,2.8,1.9c0.7,0.9,1,1.9,1,3.1c0,1-0.2,1.8-0.6,2.7c-0.4,0.8-0.9,1.5-1.5,1.9
		c-0.6,0.4-1.3,0.8-2.2,1c-0.9,0.2-2,0.3-3.3,0.3H227.1z M229.8,90.4h4.4c1.2,0,2.1-0.1,2.6-0.2c0.7-0.2,1.2-0.5,1.6-1
		c0.3-0.5,0.5-1.1,0.5-1.8c0-0.7-0.2-1.3-0.5-1.8c-0.3-0.5-0.8-0.9-1.4-1.1c-0.6-0.2-1.6-0.3-3.1-0.3h-4.1V90.4z M229.8,99.9h5.1
		c0.9,0,1.5,0,1.8-0.1c0.6-0.1,1.1-0.3,1.6-0.6c0.4-0.3,0.8-0.6,1-1.1c0.3-0.5,0.4-1.1,0.4-1.7c0-0.8-0.2-1.4-0.6-2
		c-0.4-0.6-0.9-1-1.6-1.2c-0.7-0.2-1.7-0.3-3-0.3h-4.7V99.9z"/>
	<path d="M246,102.3V81.9h2.7v8.4h10.6v-8.4h2.7v20.4h-2.7v-9.6h-10.6v9.6H246z"/>
</g>
<rect x="274.6" y="81.9" class="st0" width="257.3" height="20.4"/>
</svg>
