<svg xmlns="http://www.w3.org/2000/svg" viewBox="0 0 537.9 106.4"><style>.st0{fill:#004da1}</style><path class="st0" d="M4.7 4h21v61.1h-21V4zm41-.3c7.7 0 14.1 8.8 14.1 15.6 0 5.5-3.8 12.4-10.6 14.6 8.2.2 13 9.5 13 15.7 0 6.3-6.3 15.5-13.7 15.4H30.4V3.7h15.3zm119 .1h20.9v27.1l6.6-12.1h25.5L203 42l16.3 23.1h-25.9l-7.8-12.7v12.7h-20.9V3.8zm-100.4 15h21V45c.1 1 1.1 1.9 2.1 1.9s1.3-.8 2.3-1.5V18.8h20.9v27.8c.1 13.6-15 18.6-23.1 18.6-10 0-23.2-6.3-23.1-18.9V18.8h-.1zm86.8 0c5.6 0 9.6 6.4 9.6 10.8v12.5h-21.1V34c0-1-1.3-1.8-2.3-1.8-2.4 0-1.8 2-1.9 3.1v29.8h-20.8V18.8h36.5zm85.3 0V65h-3c-12.1 0-20.6-13-20.6-23.1 0-9.8 8-23.1 20.6-23.1h3zm4.8 0H262V65h-20.8V18.8z"/><path d="M4.7 102.3V81.9h4.1l4.8 14.4c.4 1.3.8 2.4 1 3 .2-.7.6-1.8 1.1-3.3l4.9-14.2h3.6v20.4h-2.6v-17l-5.9 17.1h-2.4l-6-17.4v17.4H4.7zm23.6 0V81.9H43v2.4H31v6.2h11.3v2.4H31v6.9h12.5v2.4H28.3zm23.8 0v-18h-6.7v-2.4h16.2v2.4h-6.7v18h-2.8zm7.6 0l7.8-20.4h2.9l8.4 20.4h-3.1l-2.4-6.2h-8.5l-2.2 6.2h-2.9zm5.9-8.4h6.9l-2.1-5.7c-.6-1.7-1.1-3.1-1.4-4.2-.3 1.3-.6 2.6-1.1 3.9l-2.3 6zm15 8.4V81.9h2.7v18h10v2.4H80.6zm15.5 0V81.9h2.7v18h10v2.4H96.1zm15.6 0V81.9h7.7c1.6 0 2.8.2 3.8.6.9.4 1.7 1 2.2 1.9.5.9.8 1.8.8 2.7 0 .9-.2 1.7-.7 2.5-.5.8-1.2 1.4-2.1 1.9 1.2.4 2.2 1 2.8 1.9.7.9 1 1.9 1 3.1 0 1-.2 1.8-.6 2.7-.4.8-.9 1.5-1.5 1.9-.6.4-1.3.8-2.2 1-.9.2-2 .3-3.3.3h-7.9zm2.7-11.9h4.4c1.2 0 2.1-.1 2.6-.2.7-.2 1.2-.5 1.6-1 .3-.5.5-1.1.5-1.8s-.2-1.3-.5-1.8-.8-.9-1.4-1.1c-.6-.2-1.6-.3-3.1-.3h-4.1v6.2zm0 9.5h5.1c.9 0 1.5 0 1.8-.1.6-.1 1.1-.3 1.6-.6.4-.3.8-.6 1-1.1.3-.5.4-1.1.4-1.7 0-.8-.2-1.4-.6-2-.4-.6-.9-1-1.6-1.2-.7-.2-1.7-.3-3-.3h-4.7v7zm13.9 2.4l7.8-20.4h2.9l8.4 20.4h-3.1l-2.4-6.2h-8.5l-2.2 6.2h-2.9zm5.9-8.4h6.9l-2.1-5.7c-.6-1.7-1.1-3.1-1.4-4.2-.3 1.3-.6 2.6-1.1 3.9l-2.3 6zm28.5-12h2.7v11.8c0 2.1-.2 3.7-.7 4.9-.5 1.2-1.3 2.2-2.5 2.9-1.2.8-2.8 1.1-4.8 1.1-1.9 0-3.5-.3-4.7-1-1.2-.7-2.1-1.6-2.6-2.9-.5-1.2-.8-3-.8-5.1V81.9h2.7v11.8c0 1.8.2 3.1.5 3.9.3.8.9 1.5 1.7 1.9s1.8.7 2.9.7c2 0 3.4-.4 4.2-1.3.8-.9 1.3-2.6 1.3-5.2V81.9zm28.7 12.4v-2.4h8.6v7.6c-1.3 1.1-2.7 1.9-4.1 2.4-1.4.5-2.9.8-4.3.8-2 0-3.8-.4-5.5-1.3-1.6-.9-2.9-2.1-3.7-3.7-.8-1.6-1.3-3.4-1.3-5.4 0-2 .4-3.8 1.2-5.6.8-1.7 2-3 3.6-3.8s3.4-1.3 5.4-1.3c1.5 0 2.8.2 4 .7 1.2.5 2.1 1.1 2.8 2 .7.9 1.2 2 1.5 3.3l-2.4.7c-.3-1-.7-1.9-1.1-2.4-.5-.6-1.1-1.1-1.9-1.4-.8-.4-1.8-.5-2.8-.5-1.2 0-2.3.2-3.2.6-.9.4-1.6.9-2.2 1.5-.6.6-1 1.3-1.3 2-.5 1.3-.8 2.6-.8 4.1 0 1.8.3 3.3.9 4.6.6 1.2 1.5 2.1 2.7 2.7 1.2.6 2.5.9 3.8.9 1.2 0 2.3-.2 3.4-.7 1.1-.5 2-.9 2.5-1.4v-3.8h-5.8zm12.3 8V81.9h4.1l4.8 14.4c.4 1.3.8 2.4 1 3 .2-.7.6-1.8 1.1-3.3l4.9-14.2h3.6v20.4h-2.6v-17l-5.9 17.1h-2.4l-5.9-17.4v17.4h-2.7zm23.4 0V81.9h7.7c1.6 0 2.8.2 3.8.6.9.4 1.7 1 2.2 1.9.5.9.8 1.8.8 2.7 0 .9-.2 1.7-.7 2.5s-1.2 1.4-2.1 1.9c1.2.4 2.2 1 2.8 1.9.7.9 1 1.9 1 3.1 0 1-.2 1.8-.6 2.7-.4.8-.9 1.5-1.5 1.9-.6.4-1.3.8-2.2 1-.9.2-2 .3-3.3.3h-7.9zm2.7-11.9h4.4c1.2 0 2.1-.1 2.6-.2.7-.2 1.2-.5 1.6-1 .3-.5.5-1.1.5-1.8s-.2-1.3-.5-1.8-.8-.9-1.4-1.1c-.6-.2-1.6-.3-3.1-.3h-4.1v6.2zm0 9.5h5.1c.9 0 1.5 0 1.8-.1.6-.1 1.1-.3 1.6-.6.4-.3.8-.6 1-1.1.3-.5.4-1.1.4-1.7 0-.8-.2-1.4-.6-2-.4-.6-.9-1-1.6-1.2-.7-.2-1.7-.3-3-.3h-4.7v7zm16.2 2.4V81.9h2.7v8.4h10.6v-8.4h2.7v20.4h-2.7v-9.6h-10.6v9.6H246z"/><path class="st0" d="M274.6 81.9h257.3v20.4H274.6z"/></svg>